<?xml version="1.0" encoding="UTF-8"?>
<svg version="1.1" xmlns="http://www.w3.org/2000/svg" width="329" height="317">
<path d="M0 0 C1.61231516 1.34445449 3.21672489 2.69845461 4.8125 4.0625 C5.57304687 4.68898438 6.33359375 5.31546875 7.1171875 5.9609375 C24.30518466 20.53207696 35.59297929 40.88138988 42.125 62.1875 C42.36758545 62.97398926 42.6101709 63.76047852 42.86010742 64.57080078 C50.48052484 90.76952112 49.62976016 124.02028098 37.8125 149.0625 C36.8225 149.3925 35.8325 149.7225 34.8125 150.0625 C34.97331055 149.05815918 35.13412109 148.05381836 35.29980469 147.01904297 C37.52689095 129.83230015 37.33998922 109.80159987 32.8125 93.0625 C32.61382324 92.28729004 32.41514648 91.51208008 32.21044922 90.71337891 C23.243532 56.23608594 2.58698401 25.9260818 -28.16210938 7.23974609 C-47.08626488 -3.75980524 -67.61170506 -9.34855364 -89.5 -9.25 C-90.67755859 -9.24943604 -91.85511719 -9.24887207 -93.06835938 -9.24829102 C-100.86002887 -9.16618871 -108.03003199 -8.45767396 -115.5625 -6.49609375 C-118.1875 -5.9375 -118.1875 -5.9375 -121.1875 -6.9375 C-85.14922263 -31.94365165 -33.5926659 -26.42003831 0 0 Z " fill="#3A668A" transform="translate(207.1875,21.9375)"/>
<path d="M0 0 C-0.50225098 0.25056152 -1.00450195 0.50112305 -1.52197266 0.75927734 C-37.11840019 18.65080292 -62.43508448 44.84975031 -75.6875 82.890625 C-87.48065759 118.71576943 -84.95364827 159.09011667 -68.25952148 192.92260742 C-63.44785172 202.31431482 -57.89360524 210.78394689 -51.3359375 219.04296875 C-49 222 -49 222 -48 224 C-52.28811264 223.49246976 -54.99728082 220.79171913 -58.125 218.0625 C-58.69903564 217.56596924 -59.27307129 217.06943848 -59.86450195 216.55786133 C-83.6700747 195.76313934 -98.99514327 168.61194015 -103 137 C-103.86677772 119.30099668 -104.42794 101.03666071 -99 84 C-98.79101074 83.32453125 -98.58202148 82.6490625 -98.36669922 81.953125 C-93.37252007 66.27102838 -85.51913903 51.64801241 -75 39 C-74.24203125 38.07832031 -73.4840625 37.15664062 -72.703125 36.20703125 C-56.95270082 17.96021631 -35.80619337 6.02191068 -12.4375 0.625 C-11.66293457 0.44477295 -10.88836914 0.2645459 -10.09033203 0.07885742 C-6.35981305 -0.72347092 -3.64572341 -1.1148289 0 0 Z " fill="#8BA1BB" transform="translate(103,93)"/>
<path d="M0 0 C0.99 0.495 0.99 0.495 2 1 C-1.32283268 33.50003466 -9.69064898 62.08217194 -33 86 C-33.804375 86.845625 -34.60875 87.69125 -35.4375 88.5625 C-36.283125 89.366875 -37.12875 90.17125 -38 91 C-38.65871094 91.65355469 -39.31742188 92.30710937 -39.99609375 92.98046875 C-59.19566417 111.2973003 -86.31769791 121.12748362 -112.70703125 121.03515625 C-144.26758564 120.29054507 -171.00299722 106.78736843 -192.62890625 84.26171875 C-204 71.91649506 -204 71.91649506 -204 68 C-202 68 -202 68 -199.73828125 70.23046875 C-198.83464844 71.14441406 -197.93101562 72.05835938 -197 73 C-180.77210084 85.74885731 -160.54828636 95.18466539 -140 98 C-139.25492187 98.10957031 -138.50984375 98.21914063 -137.7421875 98.33203125 C-105.72468607 102.29459331 -73.76555649 92.98334733 -48.0625 73.80859375 C-25.86091629 56.17977941 -10.40019115 33.09152557 -2 6 C-1.33610982 3.99907664 -0.67024022 1.99880527 0 0 Z " fill="#11294D" transform="translate(313,195)"/>
<path d="M0 0 C0.66 0 1.32 0 2 0 C-1.18955732 32.7344315 -12.78135792 61.94761098 -38.609375 83.33251953 C-59.17421803 99.66307099 -84.95573882 107.4963987 -111.14453125 104.77734375 C-140.16703257 100.89674564 -164.28637065 84.62771816 -181.890625 61.7421875 C-183 60 -183 60 -183 58 C-179.81418551 59.42542035 -177.54189264 61.19338728 -174.9375 63.5 C-151.89321793 82.13226931 -123.82210719 86.67667872 -95 85 C-88.81029106 84.32711178 -82.91265712 82.92659614 -77 81 C-76.35853027 80.79101074 -75.71706055 80.58202148 -75.05615234 80.36669922 C-59.07219351 74.93841505 -45.35351054 66.38976149 -33 55 C-32.02353516 54.14535156 -32.02353516 54.14535156 -31.02734375 53.2734375 C-16.96878602 40.31164668 -7.34414491 21.85981235 -1.875 3.78125 C-1 1 -1 1 0 0 Z " fill="#11294D" transform="translate(293,174)"/>
<path d="M0 0 C-0.50748779 0.25056152 -1.01497559 0.50112305 -1.5378418 0.75927734 C-34.21305037 17.0359824 -56.03446807 41.05751883 -68.05249023 75.62866211 C-70.45827419 82.95885088 -71.88142138 90.37863971 -73 98 C-73.13148437 98.87785156 -73.26296875 99.75570312 -73.3984375 100.66015625 C-77.39327073 132.9967117 -68.49967641 166.92978045 -49 193 C-47.38572575 195.0648605 -45.74196541 197.04028891 -44 199 C-44.33 199.66 -44.66 200.32 -45 201 C-45.66 200.67 -46.32 200.34 -47 200 C-47 199.34 -47 198.68 -47 198 C-47.56332031 197.7525 -48.12664062 197.505 -48.70703125 197.25 C-67.7018053 186.89509762 -81.37065677 162.80961386 -87.71582031 142.73535156 C-93.96403921 120.84259073 -94.76119983 95.89414404 -88 74 C-87.78569336 73.30277832 -87.57138672 72.60555664 -87.35058594 71.88720703 C-82.81859214 57.68761948 -75.77835864 45.27123782 -66 34 C-65.32453125 33.18015625 -64.6490625 32.3603125 -63.953125 31.515625 C-48.98153663 13.92127662 -28.45652429 3.73034519 -6.05078125 -0.8359375 C-3.79930562 -1.01605555 -2.16416759 -0.58994525 0 0 Z " fill="#8BA1BB" transform="translate(127,110)"/>
<path d="M0 0 C22.63986065 18.21502155 36.40942513 44.75964677 40.6015625 73.3828125 C41.36319594 88.06041217 41.79820155 103.18636948 37.6015625 117.3828125 C37.39273438 118.0934082 37.18390625 118.80400391 36.96875 119.53613281 C35.59189811 124.17905147 34.12931393 128.78748113 32.6015625 133.3828125 C31.9415625 133.3828125 31.2815625 133.3828125 30.6015625 133.3828125 C30.67375 132.42761719 30.7459375 131.47242188 30.8203125 130.48828125 C33.53918487 92.61287862 25.52779655 57.84572309 0.6015625 28.3828125 C0.08464844 27.72023437 -0.43226563 27.05765625 -0.96484375 26.375 C-17.65827907 5.70693722 -45.51973876 -6.4673654 -71.39794922 -9.44067383 C-74.77458574 -9.73861234 -78.13495072 -9.80825558 -81.5234375 -9.8046875 C-82.61724731 -9.80456665 -82.61724731 -9.80456665 -83.7331543 -9.80444336 C-92.05467772 -9.71856126 -100.34520811 -8.78161477 -108.3984375 -6.6171875 C-107.3984375 -9.6171875 -107.3984375 -9.6171875 -104.14453125 -11.30078125 C-102.71509773 -11.90176614 -101.27823317 -12.48526127 -99.8359375 -13.0546875 C-99.06362793 -13.35963135 -98.29131836 -13.6645752 -97.49560547 -13.97875977 C-64.02475703 -26.85768582 -28.3558113 -22.09317813 0 0 Z " fill="#3A668A" transform="translate(186.3984375,52.6171875)"/>
<path d="M0 0 C21.83109666 17.44256275 34.69386037 40.4180794 38.76171875 68.01171875 C39.02804879 70.62323278 39.19690802 73.20915579 39.29296875 75.83203125 C39.33292969 76.6003125 39.37289062 77.36859375 39.4140625 78.16015625 C39.8208409 92.61275363 36.44777922 106.13067154 32.29296875 119.83203125 C31.30296875 119.50203125 30.31296875 119.17203125 29.29296875 118.83203125 C29.4528125 118.21714844 29.61265625 117.60226563 29.77734375 116.96875 C34.37528426 88.99794521 25.90133272 58.2354919 9.84375 35.23046875 C-5.23832374 14.56398364 -24.99761519 1.20968857 -49.70703125 -5.16796875 C-50.52558594 -5.39355469 -51.34414062 -5.61914062 -52.1875 -5.8515625 C-65.05556309 -8.81796814 -80.97068044 -8.58057949 -93.70703125 -5.16796875 C-92.70703125 -8.16796875 -92.70703125 -8.16796875 -89.78515625 -9.66796875 C-88.51539476 -10.18370909 -87.23873838 -10.68267589 -85.95703125 -11.16796875 C-85.27310303 -11.42852051 -84.5891748 -11.68907227 -83.88452148 -11.95751953 C-55.09608132 -22.64416279 -24.59073651 -18.24739744 0 0 Z " fill="#3A668A" transform="translate(161.70703125,78.16796875)"/>
<path d="M0 0 C-1 3 -1 3 -4.24609375 4.76171875 C-5.64060045 5.40933655 -7.03792326 6.05091324 -8.4375 6.6875 C-15.42844864 10.02106073 -21.19373546 13.83305339 -27 19 C-27.69351563 19.56332031 -28.38703125 20.12664062 -29.1015625 20.70703125 C-50.40409447 38.26722652 -61.926254 67.23408606 -64.72265625 94.1328125 C-66.75289022 122.44170876 -60.2152725 154.21405073 -41.22265625 176.30859375 C-39 179 -39 179 -39 181 C-54.68267846 174.5446602 -67.39586946 153.9054278 -73.66015625 139.21484375 C-83.84320248 114.11288039 -84.84252136 84.93984764 -74.57104492 59.68115234 C-69.42304228 47.70091518 -63.14312844 37.36867051 -54 28 C-53.154375 27.113125 -52.30875 26.22625 -51.4375 25.3125 C-50.633125 24.549375 -49.82875 23.78625 -49 23 C-48.47664063 22.48179687 -47.95328125 21.96359375 -47.4140625 21.4296875 C-35.90798474 10.60329366 -16.02633954 0 0 0 Z " fill="#8BA1BB" transform="translate(149,126)"/>
<path d="M0 0 C0.66 0 1.32 0 2 0 C1.10607727 26.10254366 -9.03752843 48.18060318 -27 67 C-27.79083984 67.90298828 -27.79083984 67.90298828 -28.59765625 68.82421875 C-42.81633077 84.42475934 -65.1351606 92.78328211 -85.79443359 93.92553711 C-110.92589007 94.78587719 -133.01244509 84.73417517 -151.2421875 67.93359375 C-155.62530936 63.70760267 -159.78120098 59.19397115 -163 54 C-163 53.34 -163 52.68 -163 52 C-161 52 -161 52 -158.7734375 54.22265625 C-157.85820312 55.13917969 -156.94296875 56.05570313 -156 57 C-134.92531084 72.65626133 -109.51271637 78.90738904 -83.46484375 75.68652344 C-57.5840664 71.57295273 -33.39052585 57.61436313 -17.80419922 36.37011719 C-10.06142711 25.30718816 -3.19190486 13.19320677 0 0 Z " fill="#11294C" transform="translate(276,150)"/>
</svg>
